<svg width="952" height="698" viewBox="0 0 952 698" fill="none" xmlns="http://www.w3.org/2000/svg">
<g clip-path="url(#clip0_10_106)">
<path d="M341.208 401.613C373.808 338.31 435.991 289.704 501.817 294.386C453.262 352.674 424.948 428.042 421.885 507.155C420.805 537.671 422.481 571.736 404.126 594.585C392.706 608.803 375.25 615.689 358.086 617.134C340.922 618.578 323.762 615.154 306.827 611.746L302.719 613.138C301.155 540.342 308.609 464.916 341.208 401.613Z" fill="#F0F0F0"/>
<path d="M501.915 295.91C453.237 321.778 411.731 364.981 386.251 417.669C380.742 429.061 376.052 441.145 374.006 453.923C371.96 466.706 373.389 478.874 377.345 491.015C380.96 502.115 385.824 513.006 386.932 524.883C388.101 537.401 383.928 549.106 376.418 558.396C367.228 569.762 354.887 576.805 342.601 583.23C328.96 590.363 314.689 597.534 305.028 610.848C303.857 612.461 301.658 610.361 302.827 608.751C319.636 585.587 348.41 581.233 368.363 562.574C377.673 553.867 384.663 542.01 384.222 528.117C383.836 515.969 378.83 504.733 375.081 493.529C371.144 481.765 369.181 469.937 370.593 457.395C372.037 444.565 376.309 432.252 381.53 420.756C393.304 394.828 409.417 371.024 427.875 350.447C449.089 326.795 473.811 307.323 500.973 292.873C502.655 291.98 503.585 295.023 501.915 295.91V295.91Z" fill="white"/>
<path d="M393.715 400.061C386.252 394.038 380.972 385.282 378.818 375.358C376.664 365.434 377.775 354.988 381.954 345.885C382.805 344.046 385.433 345.42 384.581 347.261C380.676 355.73 379.641 365.461 381.664 374.697C383.688 383.934 388.635 392.068 395.614 397.632C397.13 398.842 395.221 401.265 393.715 400.061V400.061Z" fill="white"/>
<path d="M374.84 485.654C393.539 482.638 410.521 471.952 422.401 455.728C423.576 454.12 425.776 456.219 424.601 457.825C412.211 474.683 394.518 485.763 375.053 488.855C373.197 489.148 372.995 485.946 374.84 485.654V485.654Z" fill="white"/>
<path d="M450.525 330.744C452.972 333.739 456.055 336.016 459.497 337.37C462.938 338.725 466.631 339.114 470.242 338.504C472.094 338.185 472.295 341.388 470.455 341.705C466.462 342.358 462.385 341.923 458.579 340.435C454.774 338.948 451.356 336.455 448.625 333.173C448.344 332.888 448.172 332.495 448.144 332.075C448.116 331.654 448.234 331.238 448.475 330.91C448.728 330.59 449.085 330.393 449.469 330.362C449.853 330.331 450.232 330.468 450.525 330.744Z" fill="white"/>
<path d="M632.791 494.084C631.64 494.32 630.489 494.555 629.328 494.815C613.871 498.07 598.68 502.706 583.903 508.676C582.754 509.118 581.596 509.585 580.461 510.062C544.999 524.865 512.336 546.808 484.131 574.774C472.917 585.914 462.487 597.979 452.931 610.866C439.735 628.663 426.71 649.12 409.466 660.724C407.679 661.957 405.825 663.067 403.914 664.047L304.576 618.562C304.397 618.334 304.208 618.13 304.028 617.901L299.987 616.285C300.438 615.582 300.919 614.864 301.37 614.161C301.63 613.753 301.912 613.354 302.172 612.945C302.352 612.676 302.533 612.407 302.682 612.153C302.742 612.063 302.803 611.973 302.853 611.908C303.002 611.654 303.165 611.435 303.304 611.206C305.984 607.184 308.694 603.176 311.434 599.182C311.444 599.157 311.444 599.157 311.475 599.142C332.426 568.767 355.858 540.056 382.492 516.183C383.294 515.465 384.104 514.722 384.95 514.025C397.01 503.338 409.841 493.757 423.315 485.377C430.706 480.815 438.302 476.669 446.073 472.955C466.168 463.4 487.5 457.394 509.287 455.157C552.718 450.705 596.956 461.636 630.266 491.755C631.118 492.527 631.949 493.288 632.791 494.084Z" fill="#F0F0F0"/>
<path d="M632.045 495.374C579.07 483.676 522.366 490.584 473.286 515.719C462.674 521.153 452.339 527.685 443.736 536.527C435.13 545.373 429.635 556.039 426.171 568.362C423.004 579.628 420.947 591.556 415.355 601.775C409.46 612.547 399.745 619.12 388.681 621.545C375.145 624.513 361.449 621.934 348.136 618.899C333.354 615.529 318.048 611.769 303.073 615.978C301.258 616.488 300.648 613.35 302.459 612.841C328.514 605.518 353.863 621.165 379.971 619.528C392.154 618.764 404.202 613.943 411.427 602.557C417.745 592.601 419.876 580.302 422.993 568.865C426.266 556.856 431.149 546.107 439.117 537.031C447.268 527.747 457.394 520.755 467.833 515.045C491.374 502.169 517.222 493.872 543.183 489.71C573.021 484.924 603.381 485.808 632.949 492.323C634.779 492.727 633.863 495.775 632.045 495.374V495.374Z" fill="white"/>
<path d="M488.849 506.62C486.176 496.851 486.735 486.351 490.428 476.996C494.12 467.64 500.705 460.038 509.006 455.547C510.689 454.645 512.038 457.488 510.353 458.392C502.616 462.558 496.483 469.64 493.061 478.36C489.638 487.079 489.152 496.862 491.691 505.943C492.24 507.917 489.395 508.583 488.849 506.62Z" fill="white"/>
<path d="M427.095 562.417C443.671 572.436 463.058 575.191 481.392 570.132C483.208 569.63 483.819 572.767 482.005 573.269C462.918 578.495 442.748 575.582 425.52 565.114C423.878 564.115 425.463 561.423 427.095 562.417V562.417Z" fill="white"/>
<path d="M572.014 489.032C572.335 493.049 573.555 496.916 575.564 500.285C577.573 503.654 580.309 506.419 583.525 508.332C585.177 509.308 583.591 511.999 581.95 511.029C578.405 508.897 575.387 505.839 573.16 502.123C570.932 498.406 569.563 494.144 569.172 489.709C569.104 489.294 569.181 488.866 569.388 488.512C569.595 488.158 569.916 487.904 570.287 487.802C570.663 487.714 571.056 487.794 571.379 488.025C571.703 488.255 571.931 488.617 572.014 489.032V489.032Z" fill="white"/>
<path d="M443.559 569.125C429.647 494.87 412.257 470.113 412.257 470.113L405.614 464.426L397.624 457.575L397.663 456.694L395.768 455.983L395.323 455.602L394.594 454.983L394.476 455.122L394.229 455.406L358.076 441.84L312.211 424.642L290.972 394.168C287.513 389.205 283.06 385.194 277.962 382.448C272.863 379.703 267.258 378.299 261.586 378.345L193.756 378.899C184.585 378.974 175.771 382.834 169.047 389.719L124.464 435.369L54.9946 471.994L54.8773 471.865L54.1478 472.44L43.4142 478.105L43.8572 480.651L37.2137 485.942C37.2137 485.942 19.8237 508.978 5.91169 578.072C2.37262 595.653 0.630557 633.366 0.00176703 679.838C-0.029817 682.189 0.362285 684.524 1.15526 686.706C1.94824 688.888 3.12628 690.874 4.62088 692.549C6.11549 694.224 7.89683 695.555 9.86135 696.463C11.8259 697.371 13.9343 697.839 16.0642 697.84H387.112V697.84H433.423C435.552 697.839 437.659 697.371 439.622 696.464C441.585 695.556 443.366 694.228 444.86 692.555C446.354 690.882 447.533 688.898 448.327 686.718C449.121 684.538 449.515 682.206 449.486 679.857C448.872 629.288 447.13 588.191 443.559 569.125Z" fill="#2F2E41"/>
<path d="M491.166 64.757C476.73 64.757 462.885 71.0874 452.678 82.3557C442.47 93.6239 436.735 108.907 436.735 124.843C436.735 140.778 442.47 156.061 452.678 167.33C462.885 178.598 476.73 184.928 491.166 184.928H896.805C911.241 184.928 925.085 178.598 935.293 167.33C945.501 156.061 951.235 140.778 951.235 124.843C951.235 108.907 945.501 93.6239 935.293 82.3557C925.085 71.0874 911.241 64.757 896.805 64.757H491.166Z" fill="#E5E5E5"/>
<path d="M491.166 76.9171C479.652 76.9171 468.609 81.9664 460.467 90.9542C452.325 99.942 447.751 112.132 447.751 124.843C447.751 137.553 452.325 149.743 460.467 158.731C468.609 167.719 479.652 172.768 491.166 172.768H896.805C908.319 172.768 919.362 167.719 927.504 158.731C935.646 149.743 940.22 137.553 940.22 124.843C940.22 112.132 935.646 99.942 927.504 90.9542C919.362 81.9664 908.319 76.9171 896.805 76.9171H491.166Z" fill="white"/>
<path d="M238.323 350.216C287.4 350.216 327.186 306.297 327.186 252.121C327.186 197.944 287.4 154.026 238.323 154.026C189.245 154.026 149.46 197.944 149.46 252.121C149.46 306.297 189.245 350.216 238.323 350.216Z" fill="#9E616A"/>
<path d="M215.59 345.412C215.21 344.49 214.832 343.564 214.454 342.635C214.6 342.64 214.744 342.663 214.889 342.667L215.59 345.412Z" fill="#2F2E41"/>
<path d="M146.989 158.486C151.483 154.529 156.736 150.887 162.483 151.092C168.229 151.296 174.056 157.025 172.865 163.234C183.42 142.605 200.22 126.738 220.316 118.42C240.412 110.101 262.521 109.862 282.761 117.745C297.042 123.307 311.048 134.435 314.329 150.756C315.171 154.946 315.352 159.54 317.721 162.942C320.709 167.231 326.426 168.202 331.133 166.693C331.18 166.678 331.227 166.662 331.274 166.647C332.069 166.347 332.928 166.318 333.738 166.562C334.549 166.807 335.274 167.314 335.821 168.019C336.367 168.724 336.709 169.593 336.803 170.515C336.897 171.437 336.738 172.368 336.347 173.19L332.306 181.509C337.4 182.762 342.693 182.638 347.734 181.147C348.572 180.904 349.457 180.954 350.268 181.289C351.079 181.623 351.776 182.227 352.264 183.016C352.752 183.805 353.007 184.742 352.993 185.698C352.98 186.653 352.699 187.581 352.189 188.353C338.864 208.548 316.603 221.589 293.886 221.436C277.74 221.327 261.428 215.184 245.714 219.283C239.635 220.868 233.955 223.936 229.09 228.261C224.225 232.586 220.299 238.059 217.6 244.277C214.901 250.496 213.498 257.303 213.492 264.198C213.487 271.093 214.881 277.902 217.57 284.126C212.743 278.297 203.411 279.677 198.473 285.392C193.535 291.107 192.257 299.636 192.755 307.515C193.515 319.565 197.792 330.919 202.301 341.97C164.5 340.656 128.746 311.384 116.711 271.793C104.626 232.036 117.292 184.638 146.989 158.486Z" fill="#2F2E41"/>
<path opacity="0.2" d="M87.464 546.707L112.388 696.403L127.343 697.84L87.464 546.707Z" fill="black"/>
<path opacity="0.2" d="M362.007 535.417L337.083 696.294L322.128 697.84L362.007 535.417Z" fill="black"/>
<path d="M168.247 108.107C163.468 110.309 158.482 107.895 156.39 102.367C154.267 96.7538 156.25 91.0558 161.106 88.8177C165.962 86.5794 170.859 88.9994 173.017 94.703C175.142 100.321 173.18 105.833 168.247 108.107ZM159.093 77.7694L155.293 79.5209C154.344 79.9533 153.282 79.9766 152.318 79.5862C151.354 79.1959 150.558 78.4204 150.087 77.4131L149.899 77.0073C145.811 68.8678 145.343 58.9755 148.515 47.6206C151.454 37.4346 152.675 30.2709 150.22 23.7809C147.382 16.2773 141.321 13.9267 133.592 17.3317C130.594 18.7135 129.64 18.6915 127.281 21.2748C126.768 21.8436 126.156 22.2925 125.482 22.5947C124.809 22.8969 124.087 23.0462 123.36 23.0338C122.657 23.0247 121.963 22.8594 121.319 22.5478C120.675 22.2362 120.095 21.7846 119.613 21.2201C118.683 20.1322 118.163 18.6956 118.156 17.2004C118.149 15.7052 118.657 14.2629 119.576 13.1646C123.541 8.58264 128.323 4.9577 133.621 2.51856C150.228 -5.13617 158.588 6.16493 162.413 16.2784C166.155 26.1704 164.05 35.3486 160.668 47.2353C157.834 57.1124 157.999 64.4312 161.219 71.7084C161.451 72.2585 161.58 72.8549 161.599 73.4616C161.617 74.0683 161.524 74.6728 161.326 75.2389C161.127 75.805 160.827 76.321 160.443 76.7559C160.06 77.1907 159.6 77.5355 159.093 77.7694L159.093 77.7694Z" fill="#00ADB5"/>
<path d="M580.766 153.5H500.06C499.803 153.501 499.549 153.447 499.312 153.34C499.074 153.233 498.858 153.076 498.676 152.876C498.494 152.677 498.35 152.44 498.252 152.178C498.153 151.917 498.102 151.637 498.102 151.354C498.102 151.071 498.153 150.79 498.252 150.529C498.35 150.268 498.494 150.03 498.676 149.831C498.858 149.632 499.074 149.474 499.312 149.367C499.549 149.26 499.803 149.206 500.06 149.208H580.766C581.28 149.212 581.771 149.439 582.133 149.841C582.494 150.243 582.697 150.787 582.697 151.354C582.697 151.92 582.494 152.464 582.133 152.866C581.771 153.268 581.28 153.496 580.766 153.5Z" fill="#00ADB5"/>
<path d="M683.148 154.215H602.441C602.185 154.217 601.93 154.163 601.693 154.056C601.456 153.949 601.24 153.791 601.058 153.591C600.876 153.392 600.732 153.155 600.633 152.893C600.535 152.632 600.484 152.352 600.484 152.069C600.484 151.786 600.535 151.506 600.633 151.244C600.732 150.983 600.876 150.746 601.058 150.546C601.24 150.347 601.456 150.189 601.693 150.082C601.93 149.975 602.185 149.921 602.441 149.923H683.148C683.405 149.921 683.659 149.975 683.896 150.082C684.134 150.189 684.349 150.347 684.531 150.546C684.713 150.746 684.858 150.983 684.956 151.244C685.055 151.506 685.105 151.786 685.105 152.069C685.105 152.352 685.055 152.632 684.956 152.893C684.858 153.155 684.713 153.392 684.531 153.591C684.349 153.791 684.134 153.949 683.896 154.056C683.659 154.163 683.405 154.217 683.148 154.215V154.215Z" fill="#00ADB5"/>
<path d="M785.53 154.93H704.823C704.31 154.926 703.819 154.698 703.457 154.296C703.095 153.894 702.892 153.351 702.892 152.784C702.892 152.218 703.095 151.674 703.457 151.272C703.819 150.87 704.31 150.642 704.823 150.638H785.53C785.786 150.636 786.04 150.69 786.278 150.797C786.515 150.904 786.731 151.062 786.913 151.262C787.095 151.461 787.239 151.698 787.338 151.96C787.436 152.221 787.487 152.501 787.487 152.784C787.487 153.067 787.436 153.347 787.338 153.609C787.239 153.87 787.095 154.107 786.913 154.307C786.731 154.506 786.515 154.664 786.278 154.771C786.04 154.878 785.786 154.932 785.53 154.93H785.53Z" fill="#00ADB5"/>
<path d="M887.911 155.645H807.204C806.691 155.642 806.2 155.414 805.838 155.012C805.477 154.61 805.274 154.066 805.274 153.499C805.274 152.933 805.477 152.389 805.838 151.987C806.2 151.585 806.691 151.357 807.204 151.354H887.911C888.425 151.357 888.916 151.585 889.278 151.987C889.639 152.389 889.842 152.933 889.842 153.499C889.842 154.066 889.639 154.61 889.278 155.012C888.916 155.414 888.425 155.642 887.911 155.645Z" fill="#00ADB5"/>
<path d="M540.235 133.75C548.52 133.75 555.235 126.337 555.235 117.192C555.235 108.047 548.52 100.633 540.235 100.633C531.951 100.633 525.235 108.047 525.235 117.192C525.235 126.337 531.951 133.75 540.235 133.75Z" fill="#00ADB5"/>
<path d="M643.235 133.75C651.52 133.75 658.235 126.337 658.235 117.192C658.235 108.047 651.52 100.633 643.235 100.633C634.951 100.633 628.235 108.047 628.235 117.192C628.235 126.337 634.951 133.75 643.235 133.75Z" fill="#00ADB5"/>
<path d="M746.235 133.75C754.52 133.75 761.235 126.337 761.235 117.192C761.235 108.047 754.52 100.633 746.235 100.633C737.951 100.633 731.235 108.047 731.235 117.192C731.235 126.337 737.951 133.75 746.235 133.75Z" fill="#00ADB5"/>
<path d="M849.235 133.75C857.52 133.75 864.235 126.337 864.235 117.192C864.235 108.047 857.52 100.633 849.235 100.633C840.951 100.633 834.235 108.047 834.235 117.192C834.235 126.337 840.951 133.75 849.235 133.75Z" fill="#00ADB5"/>
</g>
<defs>
<clipPath id="clip0_10_106">
<rect width="951.235" height="697.84" fill="white"/>
</clipPath>
</defs>
</svg>
