<svg width="948" height="698" viewBox="0 0 948 698" fill="none" xmlns="http://www.w3.org/2000/svg">
<g clip-path="url(#clip0_10_16)">
<path d="M883.701 697.84V618.598C883.701 618.598 914.649 674.777 883.701 697.84Z" fill="#F1F1F1"/>
<path d="M885.613 697.826L827.114 644.237C827.114 644.237 889.516 659.48 885.613 697.826Z" fill="#F1F1F1"/>
<path d="M632.893 488.522C632.763 487.071 632.953 485.61 633.45 484.24C633.947 482.871 634.739 481.627 635.77 480.596C636.801 479.565 638.046 478.772 639.418 478.273C640.789 477.774 642.253 477.581 643.707 477.708L654.253 457.519L668.112 460.921L652.818 489.224C652.442 491.648 651.189 493.849 649.295 495.412C647.401 496.975 644.999 497.791 642.543 497.704C640.087 497.618 637.748 496.635 635.969 494.943C634.191 493.251 633.096 490.966 632.893 488.522H632.893Z" fill="#FFB7B7"/>
<path d="M695.842 685.211L684.147 685.21L678.584 640.2L695.844 640.201L695.842 685.211Z" fill="#FFB7B7"/>
<path d="M698.824 696.522L661.117 696.52V696.044C661.117 692.16 662.663 688.435 665.416 685.689C668.168 682.943 671.901 681.4 675.793 681.399H675.794L698.825 681.4L698.824 696.522Z" fill="#2F2E41"/>
<path d="M789.896 676.493L778.613 679.563L761.377 637.6L778.029 633.069L789.896 676.493Z" fill="#FFB7B7"/>
<path d="M795.756 686.623L759.377 696.522L759.252 696.062C758.228 692.315 758.737 688.316 760.669 684.943C762.6 681.571 765.794 679.102 769.549 678.08L769.55 678.08L791.769 672.034L795.756 686.623Z" fill="#2F2E41"/>
<path d="M674.493 490.781L668.659 579.175L681.19 678.347L701.715 672.095L702.58 583.486L718.999 532.391L767.613 668.862L789.866 660.669L771.501 572.06L761.13 488.841L674.493 490.781Z" fill="#2F2E41"/>
<path d="M731.205 335.563L696.641 340.649L684.189 352.937L680.323 397.089L682.724 436.198L672.714 505.164C672.714 505.164 697.886 491.22 717.394 508.675C736.901 526.13 764.197 511.76 764.759 500.148L731.205 335.563Z" fill="#CBCBCB"/>
<path d="M713.653 390.937L713.653 390.888L730.823 335.039L731.045 335.025C732.267 334.945 761.055 333.252 767.494 347.436L767.525 347.504L765.569 405.542L768.263 496.439L715.02 507.946L714.633 508.03L713.653 390.937Z" fill="#2F2E41"/>
<path d="M694.625 387.077L697.775 339.732C675.373 341.122 675.711 356.971 675.736 357.662L675.492 428.481L671.005 504.244L687.318 503.023L694.625 387.077Z" fill="#2F2E41"/>
<path d="M644.111 473.224L663.999 427.165L677.881 401.728L685.129 447.614L659.965 485.278L644.111 473.224Z" fill="#2F2E41"/>
<path d="M726.306 456.277C726.61 454.853 727.224 453.512 728.104 452.35C728.984 451.188 730.108 450.232 731.398 449.551C732.688 448.869 734.112 448.478 735.57 448.405C737.028 448.332 738.484 448.579 739.836 449.128L755.881 432.942L768.117 440.272L745.136 462.813C744.061 465.019 742.213 466.753 739.941 467.689C737.67 468.625 735.133 468.697 732.812 467.892C730.491 467.086 728.546 465.459 727.347 463.318C726.148 461.177 725.777 458.672 726.306 456.277V456.277Z" fill="#FFB7B7"/>
<path d="M739.799 443.219L772.513 407.407L750.858 376.573L753.087 361.498L765.851 345.765L766.1 346.087C767.46 347.843 799.43 389.289 800.347 404.979C801.268 420.727 755.316 460.562 753.359 462.25L753.088 462.484L739.799 443.219Z" fill="#2F2E41"/>
<path d="M711.26 331.684C724.102 331.684 734.513 321.296 734.513 308.481C734.513 295.667 724.102 285.279 711.26 285.279C698.419 285.279 688.008 295.667 688.008 308.481C688.008 321.296 698.419 331.684 711.26 331.684Z" fill="#FFB7B7"/>
<path d="M733.129 289.932L734.257 287.668L728.585 284.856C728.585 284.856 722.327 274.697 711.005 277.552C699.682 280.407 694.588 282.116 694.588 282.116L688.93 284.956L691.77 287.776L686.676 289.484L690.079 291.172L686.119 293.443L688.251 305.085C688.251 305.085 691.791 296.255 698.598 299.629C705.404 303.004 717.854 297.885 717.854 297.885L728.67 318.773C728.67 318.773 730.902 311.45 734.88 313.403C734.88 313.403 745.044 297.251 733.129 289.932Z" fill="#2F2E41"/>
<path d="M470.029 421.294L116.436 518.601L0 97.307L353.593 0L470.029 421.294Z" fill="white"/>
<path d="M470.029 421.294L116.436 518.601L0 97.307L353.593 0L470.029 421.294ZM120.954 510.659L462.071 416.786L349.075 7.94118L7.95828 101.815L120.954 510.659Z" fill="#F1F1F1"/>
<path d="M276.643 188.733L188.009 213.124C186.758 213.467 185.423 213.301 184.295 212.662C183.168 212.023 182.34 210.964 181.994 209.717L157.55 121.273C157.206 120.025 157.373 118.692 158.013 117.567C158.653 116.442 159.714 115.616 160.964 115.271L249.599 90.8787C250.849 90.5362 252.185 90.7025 253.312 91.3412C254.44 91.9799 255.267 93.0389 255.614 94.2858L280.058 182.731C280.401 183.978 280.234 185.311 279.594 186.436C278.954 187.561 277.893 188.387 276.643 188.733V188.733ZM161.484 117.152C160.734 117.36 160.097 117.855 159.713 118.53C159.329 119.205 159.229 120.005 159.435 120.754L183.88 209.198C184.087 209.947 184.584 210.582 185.26 210.965C185.937 211.348 186.738 211.448 187.489 211.243L276.123 186.851C276.873 186.644 277.51 186.148 277.894 185.473C278.278 184.798 278.378 183.998 278.172 183.25L253.728 94.8049C253.52 94.0567 253.023 93.4213 252.347 93.0381C251.67 92.6548 250.869 92.555 250.119 92.7606L161.484 117.152Z" fill="#E5E5E5"/>
<path d="M254.175 206.559L165.54 230.951C164.415 231.259 163.213 231.11 162.198 230.535C161.183 229.96 160.438 229.007 160.127 227.885L135.683 139.44C135.374 138.317 135.524 137.118 136.1 136.105C136.676 135.092 137.631 134.349 138.756 134.038L227.39 109.646C228.516 109.338 229.717 109.488 230.732 110.062C231.747 110.637 232.492 111.59 232.804 112.713L257.248 201.157C257.557 202.28 257.407 203.48 256.831 204.492C256.255 205.505 255.3 206.248 254.175 206.559V206.559Z" fill="#00ADB5"/>
<path d="M356.854 218.633L109.509 286.701L112.145 296.239L359.49 228.171L356.854 218.633Z" fill="#F1F1F1"/>
<path d="M363.727 243.501L116.382 311.569L119.018 321.107L366.363 253.039L363.727 243.501Z" fill="#F1F1F1"/>
<path d="M370.6 268.369L123.255 336.437L125.891 345.975L373.236 277.907L370.6 268.369Z" fill="#F1F1F1"/>
<path d="M382.696 312.137L135.351 380.205L137.987 389.743L385.332 321.675L382.696 312.137Z" fill="#F1F1F1"/>
<path d="M389.569 337.005L142.224 405.073L144.86 414.611L392.205 346.543L389.569 337.005Z" fill="#F1F1F1"/>
<path d="M396.442 361.873L149.097 429.941L151.733 439.479L399.078 371.411L396.442 361.873Z" fill="#F1F1F1"/>
<path d="M583.217 517.193H216.423V80.1719H583.217V517.193Z" fill="white"/>
<path d="M583.217 517.193H216.423V80.1719H583.217V517.193ZM222.894 510.736H576.746V86.6288H222.894V510.736Z" fill="#E5E5E5"/>
<path d="M516.436 268.042H306.725V277.936H516.436V268.042Z" fill="#00ADB5"/>
<path d="M516.436 293.766H306.725V303.66H516.436V293.766Z" fill="#00ADB5"/>
<path d="M516.436 319.49H306.725V329.384H516.436V319.49Z" fill="#00ADB5"/>
<path d="M289.676 280.895C293.249 280.895 296.146 278.004 296.146 274.438C296.146 270.872 293.249 267.981 289.676 267.981C286.102 267.981 283.205 270.872 283.205 274.438C283.205 278.004 286.102 280.895 289.676 280.895Z" fill="#00ADB5"/>
<path d="M516.436 157.197H306.725V167.091H516.436V157.197Z" fill="#E5E5E5"/>
<path d="M516.436 182.922H306.725V192.815H516.436V182.922Z" fill="#E5E5E5"/>
<path d="M516.436 208.646H306.725V218.539H516.436V208.646Z" fill="#E5E5E5"/>
<path d="M289.676 168.975C293.249 168.975 296.146 166.084 296.146 162.518C296.146 158.952 293.249 156.061 289.676 156.061C286.102 156.061 283.205 158.952 283.205 162.518C283.205 166.084 286.102 168.975 289.676 168.975Z" fill="#E5E5E5"/>
<path d="M516.436 379.962H306.725V389.856H516.436V379.962Z" fill="#E5E5E5"/>
<path d="M516.436 405.686H306.725V415.58H516.436V405.686Z" fill="#E5E5E5"/>
<path d="M516.436 431.41H306.725V441.304H516.436V431.41Z" fill="#E5E5E5"/>
<path d="M289.676 391.74C293.249 391.74 296.146 388.849 296.146 385.283C296.146 381.717 293.249 378.826 289.676 378.826C286.102 378.826 283.205 381.717 283.205 385.283C283.205 388.849 286.102 391.74 289.676 391.74Z" fill="#E5E5E5"/>
<path d="M566.092 554.825C607.497 554.825 641.063 521.332 641.063 480.016C641.063 438.7 607.497 405.206 566.092 405.206C524.688 405.206 491.122 438.7 491.122 480.016C491.122 521.332 524.688 554.825 566.092 554.825Z" fill="#00ADB5"/>
<path d="M586.864 475.243V460.929C586.866 458.206 586.33 455.509 585.287 452.993C584.244 450.477 582.714 448.19 580.785 446.264C578.856 444.337 576.566 442.809 574.045 441.767C571.524 440.724 568.821 440.188 566.092 440.188C563.364 440.188 560.661 440.724 558.14 441.767C555.619 442.809 553.329 444.337 551.4 446.264C549.471 448.19 547.941 450.477 546.898 452.993C545.855 455.509 545.319 458.206 545.321 460.929V475.243C542.545 475.368 539.924 476.556 538.003 478.56C536.081 480.565 535.009 483.231 535.007 486.004V519.829H597.178V486.004C597.176 483.231 596.104 480.565 594.182 478.56C592.261 476.556 589.64 475.368 586.864 475.243V475.243ZM566.092 447.5C569.66 447.505 573.081 448.921 575.604 451.438C578.126 453.956 579.546 457.369 579.549 460.929V475.218H552.636V460.929C552.64 457.369 554.059 453.956 556.581 451.438C559.104 448.921 562.525 447.505 566.092 447.5Z" fill="white"/>
<path d="M571.681 491.948C571.681 490.986 571.432 490.041 570.959 489.204C570.485 488.366 569.802 487.666 568.977 487.17C568.151 486.673 567.212 486.398 566.248 486.372C565.285 486.345 564.332 486.567 563.48 487.016C562.628 487.466 561.907 488.128 561.387 488.937C560.868 489.747 560.566 490.676 560.513 491.636C560.459 492.596 560.656 493.554 561.082 494.416C561.509 495.278 562.152 496.015 562.949 496.556V508.677H569.235V496.556C569.989 496.045 570.606 495.358 571.032 494.555C571.458 493.752 571.681 492.857 571.681 491.948V491.948Z" fill="#00ADB5"/>
<path d="M950.142 697.396H531.893C531.602 697.396 531.323 697.28 531.117 697.075C530.911 696.869 530.796 696.591 530.796 696.3C530.796 696.009 530.911 695.731 531.117 695.525C531.323 695.32 531.602 695.204 531.893 695.204H950.142C950.433 695.204 950.712 695.32 950.918 695.525C951.124 695.731 951.24 696.009 951.24 696.3C951.24 696.591 951.124 696.869 950.918 697.075C950.712 697.28 950.433 697.396 950.142 697.396Z" fill="#CBCBCB"/>
</g>
<defs>
<clipPath id="clip0_10_16">
<rect width="951.24" height="697.84" fill="white"/>
</clipPath>
</defs>
</svg>
