<svg width="952" height="698" viewBox="0 0 952 698" fill="none" xmlns="http://www.w3.org/2000/svg">
<g clip-path="url(#clip0_10_134)">
<path opacity="0.88" d="M391.313 646L749.486 0H33.1396L391.313 646L749.486 0H33.1396L391.313 646Z" fill="url(#paint0_linear_10_134)"/>
<path d="M440.094 571H342.531V663H440.094V571Z" fill="#3F3D56"/>
<path d="M396.615 368C294.87 368 212.094 289.944 212.094 194C212.094 98.0561 294.87 20 396.615 20C498.361 20 581.137 98.0561 581.137 194C581.137 289.944 498.361 368 396.615 368ZM396.615 25C297.793 25 217.396 100.813 217.396 194C217.396 287.187 297.793 363 396.615 363C495.437 363 575.834 287.187 575.834 194C575.834 100.813 495.437 25 396.615 25V25Z" fill="#3F3D56"/>
<path d="M396.615 326C319.429 326 256.633 266.785 256.633 194C256.633 121.215 319.429 62 396.615 62C473.801 62 536.597 121.215 536.597 194C536.597 266.785 473.801 326 396.615 326ZM396.615 65C369.559 65 343.11 72.5657 320.613 86.7404C298.116 100.915 280.582 121.062 270.228 144.634C259.874 168.206 257.165 194.143 262.443 219.167C267.722 244.19 280.751 267.176 299.883 285.217C319.015 303.258 343.39 315.544 369.927 320.521C396.463 325.499 423.969 322.944 448.966 313.18C473.963 303.417 495.329 286.883 510.361 265.669C525.392 244.455 533.416 219.514 533.416 194C533.375 159.799 518.949 127.01 493.302 102.826C467.656 78.6421 432.884 65.0387 396.615 65Z" fill="#3F3D56"/>
<path d="M396.615 236C387.806 236 379.195 233.537 371.87 228.922C364.546 224.307 358.837 217.747 355.466 210.073C352.095 202.398 351.213 193.953 352.931 185.806C354.65 177.659 358.892 170.175 365.121 164.302C371.35 158.428 379.286 154.428 387.926 152.807C396.566 151.186 405.521 152.018 413.66 155.197C421.798 158.376 428.754 163.759 433.649 170.666C438.543 177.573 441.155 185.693 441.155 194C441.141 205.135 436.444 215.811 428.095 223.685C419.745 231.558 408.424 235.987 396.615 236ZM396.615 154C388.225 154 380.024 156.346 373.049 160.741C366.073 165.136 360.636 171.384 357.425 178.693C354.215 186.002 353.375 194.044 355.011 201.804C356.648 209.563 360.688 216.69 366.621 222.284C372.553 227.878 380.111 231.688 388.34 233.231C396.568 234.775 405.097 233.983 412.848 230.955C420.599 227.928 427.224 222.801 431.885 216.223C436.546 209.645 439.034 201.911 439.034 194C439.021 183.395 434.548 173.228 426.596 165.729C418.643 158.23 407.861 154.012 396.615 154V154Z" fill="#3F3D56"/>
<path d="M386.01 144C380.301 144 374.647 145.06 369.372 147.121C364.097 149.181 359.303 152.201 355.266 156.009C351.229 159.816 348.026 164.336 345.841 169.31C343.656 174.284 342.531 179.616 342.531 185H386.01V144Z" fill="#00ADB5"/>
<path opacity="0.3" d="M342.531 203C342.531 213.874 347.112 224.302 355.266 231.991C363.42 239.68 374.479 244 386.01 244V203H342.531Z" fill="#00ADB5"/>
<path opacity="0.3" d="M404.038 144V185H447.518C447.518 179.616 446.393 174.284 444.208 169.31C442.023 164.336 438.82 159.816 434.783 156.009C430.745 152.201 425.952 149.181 420.677 147.121C415.402 145.06 409.748 144 404.038 144V144Z" fill="#00ADB5"/>
<path d="M404.038 240C415.57 240 426.629 235.68 434.783 227.991C442.937 220.302 447.518 209.874 447.518 199H404.038V240Z" fill="#00ADB5"/>
<path d="M440.525 144.923L438.603 144.077L461.158 98.5H607.118V100.5H462.509L440.525 144.923Z" fill="#3F3D56"/>
<path d="M642.644 55H559.927V61H642.644V55Z" fill="#00ADB5"/>
<path d="M642.644 68H559.927V74H642.644V68Z" fill="#00ADB5"/>
<path d="M642.644 81H559.927V87H642.644V81Z" fill="#00ADB5"/>
<path d="M437.973 385H355.257V391H437.973V385Z" fill="#00ADB5"/>
<path d="M437.973 398H355.257V404H437.973V398Z" fill="#00ADB5"/>
<path d="M437.973 411H355.257V417H437.973V411Z" fill="#00ADB5"/>
<path d="M472.969 428H470.848V272.286L446.616 235.528L448.419 234.472L472.969 271.714V428Z" fill="#3F3D56"/>
<path d="M322.382 428H320.261V271.714L344.812 234.472L346.613 235.528L322.382 272.286V428Z" fill="#3F3D56"/>
<path d="M951.24 662H0V664H951.24V662Z" fill="#2F2E41"/>
<path d="M731.578 471.764C767.626 471.764 796.848 464.792 796.848 456.192C796.848 447.591 767.626 440.619 731.578 440.619C695.531 440.619 666.309 447.591 666.309 456.192C666.309 464.792 695.531 471.764 731.578 471.764Z" fill="#2F2E41"/>
<path d="M706.021 248.932C706.021 248.932 705.235 278.593 698.944 282.301C692.653 286.009 709.953 297.132 709.953 297.132L735.903 292.682L752.417 273.402C752.417 273.402 740.622 260.055 744.554 248.932H706.021Z" fill="#FFB6B6"/>
<path opacity="0.1" d="M706.021 248.932C706.021 248.932 705.235 278.593 698.944 282.301C692.653 286.009 709.953 297.132 709.953 297.132L735.903 292.682L752.417 273.402C752.417 273.402 740.622 260.055 744.554 248.932H706.021Z" fill="black"/>
<path d="M670.634 277.852C670.634 277.852 657.266 283.042 656.479 300.839C655.693 318.636 656.479 370.544 656.479 370.544L679.284 369.061L670.634 277.852Z" fill="#F0F0F0"/>
<path d="M771.284 464.621L769.725 464.818L798.034 663.921L799.593 663.724L771.284 464.621Z" fill="#2F2E41"/>
<path d="M745.337 467.621L743.77 467.75L761.857 664.257L763.423 664.129L745.337 467.621Z" fill="#2F2E41"/>
<path d="M695.744 437.21L673.839 663.76L675.406 663.895L697.311 437.345L695.744 437.21Z" fill="#2F2E41"/>
<path d="M716.085 433.498L714.514 433.552L723.322 664.591L724.893 664.537L716.085 433.498Z" fill="#2F2E41"/>
<path d="M648.615 403.172C648.615 403.172 558.182 409.104 573.123 437.282C588.064 465.461 660.411 512.919 660.411 512.919C660.411 512.919 673.78 515.885 676.139 516.627C678.498 517.369 714.671 494.381 714.671 494.381C714.671 494.381 692.653 481.775 682.43 479.55C672.207 477.325 643.111 453.596 643.111 453.596L724.894 434.316L676.925 395.756L648.615 403.172Z" fill="#2F2E41"/>
<path d="M720.962 421.71C720.962 421.71 669.061 490.943 679.284 518.245C689.507 545.547 682.43 636.015 682.43 636.015C682.43 636.015 720.962 647.879 720.962 636.015C720.962 624.15 731.971 540.356 720.962 512.178C720.962 512.178 723.321 494.381 729.612 491.415C735.903 488.449 757.922 461.012 757.922 461.012C757.922 461.012 781.513 450.63 778.368 440.99C775.222 431.35 720.962 421.71 720.962 421.71Z" fill="#2F2E41"/>
<path d="M757.136 233.359C757.136 239.226 755.291 244.961 751.834 249.838C748.378 254.716 743.465 258.518 737.718 260.763C731.97 263.008 725.646 263.595 719.544 262.451C713.442 261.306 707.837 258.481 703.438 254.333C699.039 250.185 696.043 244.9 694.83 239.146C693.616 233.392 694.239 227.428 696.62 222.008C699.001 216.588 703.032 211.956 708.205 208.697C713.378 205.437 719.459 203.698 725.68 203.698C729.812 203.696 733.903 204.462 737.72 205.952C741.537 207.442 745.005 209.627 747.927 212.382C750.848 215.136 753.165 218.407 754.745 222.006C756.325 225.606 757.137 229.464 757.136 233.359V233.359Z" fill="#FFB6B6"/>
<path d="M746.126 263.021C746.126 263.021 793.309 281.559 786.231 305.289C779.154 329.018 764.213 431.35 741.408 431.35C718.603 431.35 670.634 419.486 667.488 415.036C664.343 410.587 679.284 320.119 679.284 320.119C679.284 320.119 697.352 264.961 704.046 269.552C704.046 269.552 699.73 293.424 722.535 287.492C745.34 281.559 746.126 263.021 746.126 263.021Z" fill="#F0F0F0"/>
<path d="M704.986 263.021C704.986 263.021 665.129 268.212 666.702 276.369L663.557 307.513L676.139 370.544L674.566 391.307L636.033 403.913L681.643 416.519C681.643 416.519 700.516 331.242 697.371 314.929C694.225 298.615 704.986 263.021 704.986 263.021Z" fill="#2F2E41"/>
<path d="M744.905 260.394C744.905 260.394 787.804 283.784 790.95 291.199C794.095 298.615 790.95 369.802 790.95 369.802C790.95 369.802 796.455 436.541 780.727 453.596C780.727 453.596 786.232 444.698 757.136 444.698C728.04 444.698 713.885 439.507 713.098 438.766C712.312 438.024 697.371 438.766 697.371 438.766C697.371 438.766 691.866 332.726 709.953 313.446C728.04 294.166 747.615 271.857 744.905 260.394Z" fill="#2F2E41"/>
<path d="M661.197 416.519V425.418C661.197 425.418 629.742 452.855 642.324 460.27C654.906 467.685 679.284 433.575 679.284 433.575L682.247 413.754L661.197 416.519Z" fill="#FFB6B6"/>
<path opacity="0.1" d="M661.197 416.519V425.418C661.197 425.418 629.742 452.855 642.324 460.27C654.906 467.685 679.284 433.575 679.284 433.575L682.247 413.754L661.197 416.519Z" fill="black"/>
<path d="M673.779 510.695L682.43 522.559C682.43 522.559 652.547 565.569 665.916 570.018C679.284 574.467 737.476 521.076 736.69 516.627C735.903 512.178 708.38 494.381 708.38 494.381L673.779 510.695Z" fill="#2F2E41"/>
<path d="M684.789 630.082L677.711 659.744C677.711 659.744 650.188 693.855 662.77 696.821C675.352 699.787 703.662 696.079 707.594 687.922C711.526 679.765 716.244 668.642 722.535 659.744C728.826 650.845 717.03 630.082 717.03 630.082H684.789Z" fill="#2F2E41"/>
<path d="M661.984 357.196L656.479 370.544L658.838 421.71C658.838 421.71 678.498 414.295 684.789 421.71L679.284 370.544L670.634 357.196H661.984Z" fill="#F0F0F0"/>
<path d="M691.08 421.71L676.139 426.159C676.139 426.159 617.947 443.956 643.897 456.562C669.848 469.169 684.789 448.405 684.789 448.405L695.012 440.99L691.08 421.71Z" fill="#FFB6B6"/>
<path d="M779.154 293.424C779.154 293.424 757.922 303.064 754.776 329.018C751.631 354.972 747.699 389.082 747.699 389.082L708.38 413.553C708.38 413.553 681.491 412.547 685.499 421.949C689.507 431.35 690.293 451.372 697.371 448.406C704.448 445.439 714.671 427.643 724.894 426.901C735.117 426.159 777.581 410.587 782.3 392.79C787.018 374.993 805.105 314.929 797.241 306.03C789.377 297.132 785.445 289.716 779.154 293.424Z" fill="#F0F0F0"/>
<path d="M695.911 214.452C695.911 214.452 683.325 214.272 680.582 218.856C677.838 223.44 678.739 226.764 682.459 226.847C686.18 226.931 703.502 217.307 703.502 217.307L695.911 214.452Z" fill="#3F3D56"/>
<path opacity="0.1" d="M695.911 214.452C695.911 214.452 683.325 214.272 680.582 218.856C677.838 223.44 678.739 226.764 682.459 226.847C686.18 226.931 703.502 217.307 703.502 217.307L695.911 214.452Z" fill="black"/>
<path d="M750.923 229.627L742.315 236.66C742.315 236.66 734.142 243.806 722.378 232.805C710.614 221.803 693.975 213.066 687.121 215.7L704.594 208.763L721.574 208.319L740.868 215.98L750.923 229.627Z" fill="#3F3D56"/>
<path d="M756.798 237.554C753.452 233.989 749.843 230.651 745.997 227.566C738.578 221.56 728.089 214.62 716.933 212.19C716.933 212.19 705.742 208.841 697.777 212.068L713.178 196.207C713.178 196.207 721.501 191.748 725.852 192.879C725.852 192.879 740.488 195.847 744.628 199.315C744.745 199.411 744.852 199.51 744.95 199.606C747.476 199.948 749.789 201.13 751.473 202.938C755.241 206.998 761.169 214.955 759.884 223.79C758.028 236.549 756.798 237.554 756.798 237.554Z" fill="#3F3D56"/>
<path opacity="0.1" d="M748.883 231.447C717.181 206.257 699.162 211.735 698.984 211.794L698.462 210.394C699.22 210.142 717.41 204.499 749.897 230.313L748.883 231.447Z" fill="black"/>
<path d="M748.247 201.102C749.115 199.684 747.99 197.538 745.733 196.309C743.476 195.08 740.943 195.234 740.074 196.653C739.206 198.072 740.331 200.218 742.588 201.447C744.844 202.675 747.378 202.521 748.247 201.102Z" fill="#3F3D56"/>
<path d="M752.592 237.399C753.882 237.221 754.672 235.435 754.358 233.408C754.045 231.382 752.745 229.884 751.456 230.061C750.166 230.239 749.376 232.025 749.69 234.052C750.004 236.078 751.303 237.576 752.592 237.399Z" fill="#FFB6B6"/>
<path d="M725.138 253.766C728.15 249.021 723.51 246.981 723.51 246.981C723.51 246.981 712.894 243.333 708.946 241.969C704.991 240.612 703.151 245.98 703.151 245.98C702.435 246.299 698.126 243.2 695.098 240.322C696.262 244.86 698.544 249.074 701.76 252.623C704.976 256.172 709.034 258.956 713.605 260.748C718.176 262.54 723.131 263.289 728.068 262.936C733.004 262.582 737.782 261.135 742.013 258.713L747.581 246.025C739.897 250.858 732.409 253.509 725.138 253.766ZM720.317 255.554C719.372 256.443 718.199 257.087 716.913 257.424C715.626 257.76 714.269 257.778 712.973 257.474L713.216 256.228C713.216 256.228 717.777 256.013 715.851 254.908C713.716 253.94 711.485 253.173 709.19 252.617C709.19 252.617 707.735 252.12 709.206 254.404L710.024 255.353L709.434 256.258C709.434 256.258 705.156 253.9 705.557 249.814C705.557 249.814 705.109 246.099 710.307 247.886C715.513 249.681 719.264 250.963 719.264 250.963C719.264 250.963 723.628 252.469 720.317 255.554V255.554Z" fill="#3F3D56"/>
</g>
<defs>
<linearGradient id="paint0_linear_10_134" x1="391.313" y1="646" x2="391.313" y2="0" gradientUnits="userSpaceOnUse">
<stop stop-color="white"/>
<stop offset="0.4735" stop-color="#F0F0F0" stop-opacity="0.7"/>
</linearGradient>
<clipPath id="clip0_10_134">
<rect width="951.24" height="697.835" fill="white"/>
</clipPath>
</defs>
</svg>
