<svg width="542" height="423" viewBox="0 0 542 423" fill="none" xmlns="http://www.w3.org/2000/svg">
<g clip-path="url(#clip0_26_74)">
<path d="M494.906 380.526C499.659 389.723 495.628 420.787 495.628 420.787C495.628 420.787 469.232 408.556 464.479 399.363C462.202 394.947 461.62 389.722 462.86 384.836C464.101 379.95 467.063 375.804 471.096 373.307C475.128 370.811 479.901 370.169 484.366 371.522C488.83 372.876 492.621 376.114 494.906 380.526V380.526Z" fill="#F1F1F1"/>
<path d="M496.011 420.747L495.45 420.876C490.049 392.789 471.188 373.741 470.998 373.552L471.384 373.088C471.575 373.279 490.571 392.455 496.011 420.747Z" fill="white"/>
<path d="M538.098 390.998C531.647 403.807 495.28 421.158 495.28 421.158C495.28 421.158 489.284 378.233 495.731 365.428C498.829 359.279 504.031 354.728 510.194 352.777C516.358 350.827 522.976 351.636 528.595 355.026C534.213 358.417 538.37 364.112 540.152 370.858C541.935 377.604 541.195 384.849 538.098 390.998Z" fill="#F1F1F1"/>
<path d="M495.601 421.622L495.054 420.993C521.371 393.636 528.183 355.482 528.249 355.1L529.029 355.26C528.962 355.645 522.108 394.067 495.601 421.622Z" fill="white"/>
<path d="M127.426 294.013C123.264 293.998 119.12 293.411 115.091 292.267L114.297 292.026L113.561 291.622C86.9316 277.008 64.466 257.705 46.788 234.248C32.1542 214.718 20.7451 192.542 13.0736 168.72C3.89968 140.198 -0.513869 110.103 0.0436343 79.8718C0.0548837 79.2372 0.0644041 78.7473 0.0644041 78.4097C0.0644041 63.714 7.51676 50.8196 19.0501 45.5594C27.8772 41.5336 108.023 5.50101 113.813 2.89756C124.719 -3.08363 136.353 1.90861 138.215 2.78162C142.391 4.65053 216.481 37.8204 232.491 46.1653C248.992 54.766 253.395 70.2167 253.395 77.9902C253.395 113.183 247.826 146.074 236.844 175.749C227.975 199.769 215.404 221.944 199.68 241.308C169.342 278.678 138.996 291.926 138.703 292.042C135.076 293.408 131.261 294.075 127.426 294.013ZM120.289 274.664C122.92 275.31 128.977 276.278 132.925 274.702C137.941 272.7 163.34 258.283 187.075 229.047C219.868 188.653 236.507 137.873 236.531 78.1201C236.473 76.9095 235.688 68.2753 225.241 62.8307C209.541 54.6472 132.531 20.1795 131.755 19.8321L131.542 19.7334C129.929 18.9931 124.792 17.4339 121.252 19.4647L120.543 19.8264C119.685 20.2123 34.6094 58.4596 25.536 62.5977C19.189 65.4924 16.9275 72.6637 16.9275 78.4098C16.9275 78.8297 16.9176 79.4405 16.9036 80.2299C16.1784 121.115 24.822 221.722 120.289 274.664Z" fill="#3F3D56"/>
<path d="M117.34 11.2893C117.34 11.2893 31.4911 49.8836 22.293 54.0786C13.095 58.2736 8.49592 68.3417 8.49592 78.4098C8.49592 88.4779 1.59738 219.853 117.34 283.372C117.34 283.372 127.845 286.554 135.814 283.372C143.784 280.191 244.963 226.494 244.963 77.9903C244.963 77.9903 244.963 62.8882 228.866 54.4981C212.77 46.1081 134.945 11.2893 134.945 11.2893C134.945 11.2893 125.388 6.67477 117.34 11.2893Z" fill="#00ADB5"/>
<path opacity="0.1" d="M126.538 41.4934V247.38C126.538 247.38 39.9227 201.743 40.6892 81.7657L126.538 41.4934Z" fill="black"/>
<path d="M127.667 189.467L100.076 150.635L116.122 136.975L129.186 155.361L173.32 104.365L188.078 119.67L127.667 189.467Z" fill="white"/>
<path d="M541.338 423H289.221C289.045 423 288.877 422.924 288.753 422.788C288.629 422.652 288.559 422.468 288.559 422.276C288.559 422.083 288.629 421.899 288.753 421.763C288.877 421.628 289.045 421.551 289.221 421.551H541.338C541.514 421.551 541.682 421.628 541.806 421.763C541.93 421.899 542 422.083 542 422.276C542 422.468 541.93 422.652 541.806 422.788C541.682 422.924 541.514 423 541.338 423Z" fill="#CACACA"/>
<path d="M362.1 411.583L372.334 411.582L377.203 368.374L362.098 368.375L362.1 411.583Z" fill="#FFB8B8"/>
<path d="M359.49 407.925L379.644 407.924H379.645C383.051 407.925 386.318 409.406 388.727 412.042C391.135 414.679 392.489 418.254 392.489 421.983V422.44L359.49 422.441L359.49 407.925Z" fill="#2F2E41"/>
<path d="M396.51 411.583L406.744 411.582L411.613 368.374L396.508 368.375L396.51 411.583Z" fill="#FFB8B8"/>
<path d="M393.899 407.925L414.054 407.924H414.055C417.461 407.925 420.728 409.406 423.137 412.042C425.545 414.679 426.899 418.254 426.899 421.983V422.44L393.9 422.441L393.899 407.925Z" fill="#2F2E41"/>
<path d="M378.185 259.848L380.641 396.925L360.781 395.577L347.004 308.266L342.653 248.736L378.185 259.848Z" fill="#2F2E41"/>
<path d="M412.267 236.83L415.05 399.098L391.89 398.373L386.887 301.916L378.185 266.992L342.653 248.736L348.454 205.081L400.665 204.287L412.267 236.83Z" fill="#2F2E41"/>
<path d="M372.337 91.5767C382.145 91.5767 390.097 82.8734 390.097 72.1374C390.097 61.4013 382.145 52.698 372.337 52.698C362.529 52.698 354.577 61.4013 354.577 72.1374C354.577 82.8734 362.529 91.5767 372.337 91.5767Z" fill="#FFB8B8"/>
<path d="M387.067 99.7656L389.788 104.277L397.039 126.501L391.238 213.017L357.156 213.812L352.806 114.595L361.92 102.125L387.067 99.7656Z" fill="#CCCCCC"/>
<path d="M339.028 116.976L333.226 116.182C333.226 116.182 331.776 116.976 331.051 122.532C330.326 128.088 321.624 177.3 321.624 177.3L333.226 237.624L346.279 218.574L338.302 185.237L346.279 151.9L339.028 116.976Z" fill="#2F2E41"/>
<path d="M412.992 116.183H417.343L428.221 180.475L418.068 230.48L407.916 212.224L410.816 192.381L409.367 174.919L404.291 164.6L412.992 116.183Z" fill="#2F2E41"/>
<path d="M382.831 72.1373L379.602 71.2537C379.602 71.2537 377.181 56.2324 371.53 57.9996C365.879 59.7668 351.348 61.534 351.348 54.4652C351.348 47.3963 365.072 41.2111 373.144 42.0947C381.217 42.9783 391.527 45.9096 394.133 58.8832C398.311 79.6805 385.513 84.9335 385.513 84.9335L385.726 84.1763C386.317 82.0738 386.36 79.8322 385.848 77.7047C385.337 75.5773 384.292 73.6488 382.831 72.1373Z" fill="#2F2E41"/>
<path d="M333.952 116.182L357.156 105.864L362.595 101.498L378.911 180.475L386.525 99.1172L416.618 116.182L406.466 170.156L405.016 190.793L409.367 207.462C409.367 207.462 424.595 219.368 419.519 232.068C414.443 244.767 408.642 245.561 408.642 245.561C408.642 245.561 383.987 220.162 382.536 213.812C381.086 207.462 378.911 196.349 378.911 196.349C378.911 196.349 366.583 247.148 352.08 246.355C337.578 245.561 337.577 228.893 337.577 228.893L341.203 211.43L347.004 193.175L344.104 163.013L333.952 116.182Z" fill="#2F2E41"/>
</g>
<defs>
<clipPath id="clip0_26_74">
<rect width="542" height="423" fill="white"/>
</clipPath>
</defs>
</svg>
